<?xml version="1.0" standalone="no"?><!DOCTYPE svg PUBLIC "-//W3C//DTD SVG 1.1//EN" "http://www.w3.org/Graphics/SVG/1.1/DTD/svg11.dtd"><svg class="icon" height="512" viewBox="0 0 1024 1024" version="1.1" xmlns="http://www.w3.org/2000/svg"><path d="M758.439834 1019.751037 758.439834 1019.751037l-4.248963 0 0 0 0 0 0 0 0 0L524.746888 892.282158c-4.248963-4.248963-8.497925-8.497925-12.746888-12.746888-4.248963 4.248963-4.248963 8.497925-12.746888 12.746888l-225.195021 123.219917 0 0 0 0 0 0-4.248963 0-4.248963 0-4.248963 0-4.248963 0L257.062241 1019.751037l-4.248963 0-4.248963 0L23.369295 892.282158c-4.248963-4.248963-8.497925-8.497925-12.746888-12.746888l0 0 0-4.248963 0-4.248963 0-301.676349c0-8.497925 8.497925-21.244813 16.995851-25.493776l237.941909-114.721992L265.560166 140.215768c0-8.497925 8.497925-21.244813 16.995851-25.493776L524.746888 0l0 4.248963c4.248963 0 8.497925 0 8.497925 4.248963l216.697095 110.473029C762.688797 118.970954 766.937759 127.46888 766.937759 140.215768l0 293.178423 0 4.248963c4.248963 0 8.497925 0 12.746888 4.248963l216.697095 110.473029c8.497925 4.248963 16.995851 12.746888 16.995851 25.493776l0 310.174274 0 0c0 4.248963-4.248963 12.746888-12.746888 12.746888l-225.195021 123.219917 0 0 0 0 0 0L766.937759 1019.751037 758.439834 1019.751037 758.439834 1019.751037 758.439834 1019.751037 758.439834 1019.751037zM788.182573 951.767635l174.207469-93.477178 0-242.190871-174.207469 93.477178L788.182573 951.767635 788.182573 951.767635zM291.053942 951.767635l174.207469-93.477178 0-242.190871-174.207469 93.477178L291.053942 951.767635 291.053942 951.767635zM737.195021 951.767635l0-242.190871-72.232365-38.240664L664.962656 722.323651l-59.485477-29.742739L605.477178 637.344398l-42.489627-21.244813 0 242.190871L737.195021 951.767635 737.195021 951.767635zM235.817427 951.767635l0-242.190871-72.232365-38.240664L163.585062 722.323651l-59.485477-29.742739L104.099585 637.344398l-42.489627-21.244813 0 242.190871L235.817427 951.767635 235.817427 951.767635zM762.688797 662.838174l169.958506-93.477178-67.983402-33.991701-169.958506 89.228216L762.688797 662.838174 762.688797 662.838174zM261.311203 662.838174l169.958506-93.477178-67.983402-33.991701-169.958506 89.228216L261.311203 662.838174 261.311203 662.838174zM129.593361 590.605809l169.958506-89.228216-29.742739-16.995851-174.207469 84.979253L129.593361 590.605809 129.593361 590.605809zM630.970954 590.605809l169.958506-89.228216L766.937759 488.630705l-174.207469 84.979253L630.970954 590.605809 630.970954 590.605809zM490.755187 526.871369 490.755187 284.680498 418.522822 246.439834 418.522822 297.427386 359.037344 271.93361 359.037344 212.448133l-42.489627-21.244813 0 242.190871L490.755187 526.871369 490.755187 526.871369zM545.991701 522.622407l174.207469-93.477178L720.19917 182.705394l-174.207469 93.477178L545.991701 522.622407 545.991701 522.622407zM516.248963 233.692946l169.958506-93.477178-67.983402-33.991701-169.958506 93.477178L516.248963 233.692946 516.248963 233.692946zM397.278008 165.709544l169.958506-89.228216-42.489627-21.244813-174.207469 84.979253L397.278008 165.709544 397.278008 165.709544zM397.278008 165.709544" /></svg>